<?xml version="1.0" encoding="UTF-8"?>
<svg id="Livello_2" data-name="Livello 2" xmlns="http://www.w3.org/2000/svg" viewBox="0 0 226.77 93.43">
  <defs>
    <style>
      .cls-1 {
        fill: #1d71b8;
      }
    </style>
  </defs>
  <g id="testo">
    <path class="cls-1" d="M200.88,.11c-14.01,1.05-12.4,10.44-18.03,19.51-2.91-2.45-3-6.17-4.13-9.54-3.71-10.12-18.74-4.85-17.8,5.55,.07,12.85,5,25.19,4.19,38.1-.19,5.56-3.61,10.15-5.79,15.11-9.4-8.25-5.12-14.15-.72-25.48,4.15-12.16-11.3-8.35-8.5-23.08,.35-5.04-2.24-8.65-7.44-8.81-23.21-.11-11.02,36.01-24.2,47.75-2.95,3-7.59,7.21-11.03,11.78-.06-.05-.11-.09-.17-.14-12.59-9.37-7.97-15.26-3.22-27.5,4.15-12.16-11.3-8.35-8.5-23.08,.35-5.04-2.24-8.65-7.44-8.81-23.21-.11-11.02,36.01-24.2,47.75-.97,.99-2.13,2.11-3.37,3.34,.14-.76,.24-1.53,.31-2.31,2.87-20.37-19.78-18.63-33.19-21.74-15.56-3.7-.09-20.65,10.2-16.52,6.98,1.52,7.49,2.19,7.48,9.31,0,1.29,.02,2.58,0,3.88,.42,8.12,12.93,6.23,14.62-.43,2.69-7.19,.13-15.31-6.21-19.65-11.5-7.87-33.36-6.86-44.06,2.05-8.52,7.09-7.87,21.1,1.69,26.68,4.2,2.45,9.25,3.51,13.99,4.95,4.83,1.46,9.85,2.34,14.61,3.99,10.08,4.7-2.06,18.8-9.95,10.23-3.95-3.67-7.92-7.46-12.41-10.37C5.47,44.57-2.67,60.75,.81,70.99c.89,7.26,8.86,6.92,14.48,5.92,11.74-3.56,20.16,5.63,30.81,2.64,.95-.3,1.87-.66,2.75-1.08-.94,3.33-.51,6.6,2.34,9.52,3.78,3.13,8.26,3.77,12.86,2.29,8.47-3.25,6.25-15.26,8.44-22.49,.85-4.29,4.03-6.89,8.06-7.12,4.06-.75,1.7,7.37,2.31,9.9h.12c-.81,6.61,1.21,12.89,3.93,18.81,1.35,2.86,4.21,4.43,7.5,3.99,3.96-.52,7.89-2.81,10.84-5.93,.16,.18,.32,.36,.5,.54,3.78,3.13,8.26,3.77,12.86,2.29,8.47-3.25,6.25-15.26,8.44-22.49,.85-4.29,4.03-6.89,8.06-7.12,4.06-.75,1.7,7.37,2.31,9.9h.12c-.81,6.61,1.21,12.89,3.93,18.81,1.35,2.86,4.21,4.43,7.5,3.99,5.79-.77,11.53-5.3,14.22-10.72,1.74,.66,3.76,.85,5.86,.45,4.6,.28,9.38-.05,11.73-4.58,3.07-5.21,4.64-10.86,2.94-16.81-1.53-5.36-3.81-10.5-5.47-15.82-2.6-4.76-1.74-17.04,5.91-10.79,2.46,3.89,1.38,9.38,2.9,13.72,1.03,5.72,8.97,6.13,11.45,1.27,6.14-9.18-2-17.06-4.17-26.02-.75-7.82,16.35-3.79,13.35,6.36-3.38,16.28-17.24,36.96-1.55,50.91,3.88,2.81,8.17,2.5,12.28,.75,10.53-4.53,8.27-18.24,4.24-26.64-6.13-12.14,.68-24.11,3.63-36.08C229.95,4.95,212.3-.88,200.88,.11ZM80.75,43.88c.4-8.32,7.99-9.45,7.77-.61,.59,4.35-8.59,5.5-7.77,.61Zm54.56,0c.4-8.32,7.99-9.45,7.77-.61,.59,4.35-8.59,5.5-7.77,.61Z"/>
  </g>
</svg>